<svg width="281" height="42" viewBox="0 0 281 42" fill="none" xmlns="http://www.w3.org/2000/svg">
<path d="M39.2409 33.55V40.3118H0.712891V0.915039H39.1588V7.66508H8.82468V18.1482H33.6413V23.196H8.82468V33.55H39.2409Z" fill="#F9F9F9"/>
<path d="M53.5995 27.0117C54.0808 31.3083 59.1874 34.2665 65.7143 34.3135C71.7248 34.3487 74.6948 32.2591 74.6948 28.9135C74.6948 25.2391 70.5509 24.3352 62.3452 23.1965C53.1182 21.6939 45.8399 19.1582 45.8399 11.786C45.8399 4.41377 51.956 0.09375 63.5074 0.09375C75.0587 0.09375 81.1749 5.29421 81.0692 13.6877H73.1335C72.8753 8.9451 68.7783 6.91422 63.1552 6.91422C57.5321 6.91422 54.0338 8.34641 54.0338 11.9503C54.0338 15.8947 58.0369 16.5873 66.9117 18.1017C75.7748 19.4517 82.701 21.6 82.701 29.1717C82.701 36.7435 77.3362 41.1105 65.4796 41.1105C51.0286 41.1105 44.8538 32.13 45.3938 26.9882H53.6112L53.5995 27.0117Z" fill="#F9F9F9"/>
<path d="M121.473 40.3118L97.936 19.6625V40.3118H89.8242V0.915039H97.936V19.5686L118.339 0.915039H130.395L108.865 19.4395L133.177 40.3118H121.473Z" fill="#F9F9F9"/>
<path d="M132.719 20.6138C132.719 7.80636 141.875 0.117188 157.629 0.117188C173.383 0.117188 182.54 7.80636 182.54 20.6138C182.54 33.4213 173.383 41.1105 157.629 41.1105C141.875 41.1105 132.719 33.4213 132.719 20.6138ZM174.052 20.6138C174.052 11.6216 166.704 7.24288 157.629 7.24288C148.555 7.24288 141.018 11.6216 141.018 20.6138C141.018 29.606 148.567 34.0787 157.629 34.0787C166.692 34.0787 174.052 29.7352 174.052 20.6138Z" fill="#F9F9F9"/>
<path d="M188.998 20.6138C188.998 7.80636 198.155 0.117188 213.909 0.117188C229.663 0.117188 238.819 7.80636 238.819 20.6138C238.819 33.4213 229.663 41.1105 213.909 41.1105C198.155 41.1105 188.998 33.4213 188.998 20.6138ZM230.332 20.6138C230.332 11.6216 222.983 7.24288 213.909 7.24288C204.834 7.24288 197.298 11.6216 197.298 20.6138C197.298 29.606 204.846 34.0787 213.909 34.0787C222.971 34.0787 230.332 29.7352 230.332 20.6138Z" fill="#F9F9F9"/>
<path d="M280.999 33.5735V40.3353H251.663V40.3118H246.721V0.915039H254.832V33.5852H280.999V33.5735Z" fill="#F9F9F9"/>
</svg>
